<svg xmlns="http://www.w3.org/2000/svg" width="500" height="400" viewBox="0 0 500 400">
  <style>
    .primary { fill: #3b82f6; }
    .primary-light { fill: #60a5fa; }
    .secondary { fill: #8b5cf6; }
    .accent { fill: #10b981; }
    .dark { fill: #1f2937; }
    .light { fill: #f3f4f6; }
    .white { fill: #ffffff; }
    .outline { fill: none; stroke: #9ca3af; stroke-width: 2; stroke-linecap: round; stroke-linejoin: round; }
  </style>
  
  <!-- Background elements -->
  <circle cx="250" cy="200" r="150" class="light" opacity="0.3" />
  <circle cx="130" cy="100" r="20" class="primary-light" opacity="0.5" />
  <circle cx="400" cy="300" r="15" class="secondary" opacity="0.5" />
  <circle cx="380" cy="80" r="10" class="accent" opacity="0.5" />
  
  <!-- Main illustration: Simplified hackathon team working together -->
  <rect x="150" y="120" width="200" height="160" rx="10" class="white" style="filter: drop-shadow(0 4px 6px rgba(0,0,0,0.1))" />
  
  <!-- Code elements -->
  <g transform="translate(170, 140)">
    <rect x="0" y="0" width="160" height="15" rx="3" class="primary-light" opacity="0.2" />
    <rect x="0" y="25" width="120" height="15" rx="3" class="secondary" opacity="0.2" />
    <rect x="0" y="50" width="140" height="15" rx="3" class="accent" opacity="0.2" />
    <rect x="0" y="75" width="100" height="15" rx="3" class="primary" opacity="0.2" />
    <rect x="0" y="100" width="130" height="15" rx="3" class="secondary" opacity="0.2" />
  </g>
  
  <!-- People icons representing team -->
  <g transform="translate(100, 280)">
    <circle cx="0" cy="0" r="20" class="primary" />
    <circle cx="35" cy="0" r="20" class="secondary" />
    <circle cx="70" cy="0" r="20" class="accent" />
    <path d="M0,-10 C-5,-10 -10,-5 -10,0 C-10,10 -5,20 0,20 C5,20 10,10 10,0 C10,-5 5,-10 0,-10" class="white" />
    <path d="M35,-10 C30,-10 25,-5 25,0 C25,10 30,20 35,20 C40,20 45,10 45,0 C45,-5 40,-10 35,-10" class="white" />
    <path d="M70,-10 C65,-10 60,-5 60,0 C60,10 65,20 70,20 C75,20 80,10 80,0 C80,-5 75,-10 70,-10" class="white" />
  </g>
  
  <!-- Trophy icon -->
  <g transform="translate(370, 250)">
    <path d="M0,0 L40,0 L40,20 C40,30 30,40 20,40 C10,40 0,30 0,20 L0,0 Z" class="primary" />
    <rect x="10" y="-10" width="20" height="10" class="primary-dark" />
    <rect x="-5" y="-5" width="10" height="15" rx="2" class="primary-light" />
    <rect x="35" y="-5" width="10" height="15" rx="2" class="primary-light" />
    <path d="M20,45 L20,60 M5,60 L35,60" class="outline" />
  </g>
  
  <!-- Connected dots representing network -->
  <g stroke="#9ca3af" stroke-width="1" opacity="0.5">
    <line x1="100" y1="280" x2="150" y2="200" />
    <line x1="135" y1="280" x2="200" y2="200" />
    <line x1="170" y1="280" x2="250" y2="200" />
    <line x1="370" y1="250" x2="300" y2="200" />
  </g>
</svg>
